<?xml version="1.0" encoding="utf-8"?>
<!-- Generator: Adobe Illustrator 16.0.4, SVG Export Plug-In . SVG Version: 6.00 Build 0)  -->
<!DOCTYPE svg PUBLIC "-//W3C//DTD SVG 1.1//EN" "http://www.w3.org/Graphics/SVG/1.1/DTD/svg11.dtd">
<svg version="1.1" id="Layer_1" xmlns="http://www.w3.org/2000/svg" xmlns:xlink="http://www.w3.org/1999/xlink" x="0px" y="0px"
	 width="100px" height="100px" viewBox="0 0 100 100" enable-background="new 0 0 100 100" xml:space="preserve">
<path fill="#FF0000" d="M84.48,36.38H80.2v-3.95h-4.04h-0.57h-4.279v-4.85h-8.701H61.9H57.77v-4.85h-8.74V4.75h-4.85V-0.1h-8.84
	v4.85h-4.85v40.99h-4.28v-4.85h-9.69h-4.97h-0.44v14.219h4.85v4.521h4.85v8.521h4.85v9.09h4.85v9.109h4.85V100h1.02h4.4h33.46h3.97
	h1.45V86.35h4.85v-13.66h4.85V40.78h-4.85v-4.4H84.48z M83.9,72.12H79.05V85.77H74.2v8.811H40.75V85.77H35.9v-9.08h-4.85V67.58H26.2
	v-8.51h-4.85V54.55H16.5v-8.23h9.13v4.52h4.85V63.5h5.42V5.32h7.7V45.8h5.42V28.15h8.18V45.8h5.42V33h8.13v18.22h5.42V36.95h3.471
	v4.4h4.279v30.77H83.9z"/>
</svg>
